# xmcd
#
# Track frame offsets: 
#        150
#        21267
#        39120
#        62252
#        81315
#        101405
#        125535
#        144675
#        161432
#        183402
#        201942
#        220612
#
# Disc length: 3194 seconds
#
# Revision: 3
# Processed by: cddbd v1.4PL0 Copyright (c) Steve Scherf et al.
# Submitted via: ExactAudioCopy v0.90b4
#
DISCID=9c0c780c
DTITLE=John Mayall - Wake Up Call
DYEAR=1993
DGENRE=Blues
TTITLE0=Mail Order Mystics
TTITLE1=Maydell
TTITLE2=I Could Cry
TTITLE3=Wake Up Call
TTITLE4=Loaded Dice
TTITLE5=Undercover Agent For The Blues
TTITLE6=Light The Fuse
TTITLE7=Anything I Can Say
TTITLE8=Nature's Disappearing
TTITLE9=I'm A Sucker For Love
TTITLE10=Not At Home
TTITLE11=Ain't That Lovin' You Baby
EXTD=
EXTT0=
EXTT1=
EXTT2=
EXTT3=
EXTT4=
EXTT5=
EXTT6=
EXTT7=
EXTT8=
EXTT9=
EXTT10=
EXTT11=
PLAYORDER=
